%TF.GenerationSoftware,KiCad,Pcbnew,10.0.3*%
%TF.CreationDate,2026-06-20T23:35:50-04:00*%
%TF.ProjectId,tamagotchi (1),74616d61-676f-4746-9368-69202831292e,rev?*%
%TF.SameCoordinates,Original*%
%TF.FileFunction,Copper,L1,Top*%
%TF.FilePolarity,Positive*%
%FSLAX46Y46*%
G04 Gerber Fmt 4.6, Leading zero omitted, Abs format (unit mm)*
G04 Created by KiCad (PCBNEW 10.0.3) date 2026-06-20 23:35:50*
%MOMM*%
%LPD*%
G01*
G04 APERTURE LIST*
G04 Aperture macros list*
%AMRoundRect*
0 Rectangle with rounded corners*
0 $1 Rounding radius*
0 $2 $3 $4 $5 $6 $7 $8 $9 X,Y pos of 4 corners*
0 Add a 4 corners polygon primitive as box body*
4,1,4,$2,$3,$4,$5,$6,$7,$8,$9,$2,$3,0*
0 Add four circle primitives for the rounded corners*
1,1,$1+$1,$2,$3*
1,1,$1+$1,$4,$5*
1,1,$1+$1,$6,$7*
1,1,$1+$1,$8,$9*
0 Add four rect primitives between the rounded corners*
20,1,$1+$1,$2,$3,$4,$5,0*
20,1,$1+$1,$4,$5,$6,$7,0*
20,1,$1+$1,$6,$7,$8,$9,0*
20,1,$1+$1,$8,$9,$2,$3,0*%
G04 Aperture macros list end*
%TA.AperFunction,ComponentPad*%
%ADD10C,1.600000*%
%TD*%
%TA.AperFunction,ComponentPad*%
%ADD11C,3.000000*%
%TD*%
%TA.AperFunction,ComponentPad*%
%ADD12R,1.600000X1.600000*%
%TD*%
%TA.AperFunction,ComponentPad*%
%ADD13R,1.700000X1.700000*%
%TD*%
%TA.AperFunction,ComponentPad*%
%ADD14C,1.700000*%
%TD*%
%TA.AperFunction,ComponentPad*%
%ADD15R,2.000000X2.000000*%
%TD*%
%TA.AperFunction,ComponentPad*%
%ADD16C,2.000000*%
%TD*%
%TA.AperFunction,ComponentPad*%
%ADD17C,1.524000*%
%TD*%
%TA.AperFunction,ComponentPad*%
%ADD18RoundRect,0.275000X0.975000X0.275000X-0.975000X0.275000X-0.975000X-0.275000X0.975000X-0.275000X0*%
%TD*%
%TA.AperFunction,ViaPad*%
%ADD19C,0.600000*%
%TD*%
%TA.AperFunction,Conductor*%
%ADD20C,0.200000*%
%TD*%
G04 APERTURE END LIST*
D10*
%TO.P,REF\u002A\u002A,1*%
%TO.N,N/C*%
X160500000Y-101000000D03*
%TO.P,REF\u002A\u002A,2*%
X160500000Y-93380000D03*
%TD*%
%TO.P,REF\u002A\u002A,1*%
%TO.N,N/C*%
X160000000Y-80000000D03*
%TO.P,REF\u002A\u002A,2*%
X167600000Y-80000000D03*
%TD*%
D11*
%TO.P,LCD1,*%
%TO.N,*%
X152680000Y-72000000D03*
X101680000Y-72000000D03*
X152680000Y-102000000D03*
X101680000Y-102000000D03*
D12*
%TO.P,LCD1,1,LEDK_1*%
%TO.N,unconnected-(U2-LEDK-Pad1)*%
X153910000Y-75570000D03*
D10*
%TO.P,LCD1,2,LEDA_2*%
%TO.N,unconnected-(U2-LEDA-Pad2)*%
X153910000Y-78110000D03*
%TO.P,LCD1,3,VDD3.3V_3*%
%TO.N,unconnected-(U2-VDD3.3V-Pad3)*%
X153910000Y-80650000D03*
%TO.P,LCD1,4,TE_4*%
%TO.N,unconnected-(U2-TE-Pad4)*%
X153910000Y-83190000D03*
%TO.P,LCD1,5,CS_5*%
%TO.N,unconnected-(U2-CS-Pad5)*%
X153910000Y-85730000D03*
%TO.P,LCD1,6,RESET_6*%
%TO.N,unconnected-(U2-RESET-Pad6)*%
X153910000Y-88270000D03*
%TO.P,LCD1,7,D/CX_7*%
%TO.N,unconnected-(U2-D{slash}CX-Pad7)*%
X153910000Y-90810000D03*
%TO.P,LCD1,8,SCLK_8*%
%TO.N,unconnected-(U2-SCLK-Pad8)*%
X153910000Y-93350000D03*
%TO.P,LCD1,9,SDA_9*%
%TO.N,unconnected-(U2-SDA-Pad9)*%
X153910000Y-95890000D03*
%TO.P,LCD1,10,GND_10*%
%TO.N,unconnected-(U2-GND-Pad10)*%
X153910000Y-98430000D03*
%TO.P,LCD1,11*%
%TO.N,+3V3*%
X100450000Y-98430000D03*
%TO.P,LCD1,12*%
%TO.N,GND*%
X100450000Y-95890000D03*
%TO.P,LCD1,13*%
%TO.N,+3V3*%
X100450000Y-93350000D03*
%TO.P,LCD1,14*%
%TO.N,N/C*%
X100450000Y-90810000D03*
%TO.P,LCD1,15*%
X100450000Y-88270000D03*
%TO.P,LCD1,16*%
%TO.N,Net-(U1-GPIO8_D8_SCK)*%
X100450000Y-85730000D03*
%TO.P,LCD1,17*%
%TO.N,Net-(U1-GPIO10_D10_MOSI)*%
X100450000Y-83190000D03*
%TO.P,LCD1,18*%
%TO.N,/DC*%
X100450000Y-80650000D03*
%TO.P,LCD1,19*%
%TO.N,/RES*%
X100450000Y-78110000D03*
%TO.P,LCD1,20*%
%TO.N,/CS1*%
X100450000Y-75570000D03*
%TD*%
D13*
%TO.P,BT1,1,+_1*%
%TO.N,+BATT*%
X129225000Y-54500000D03*
D14*
%TO.P,BT1,2,-_2*%
%TO.N,GND*%
X131765000Y-54500000D03*
%TD*%
D10*
%TO.P,SW3,1,1_1*%
%TO.N,GND*%
X113600000Y-111000000D03*
X118400000Y-111000000D03*
%TO.P,SW3,2,2_2*%
%TO.N,Net-(U1-GPIO4_A2_D2)*%
X113600000Y-114000000D03*
X118400000Y-114000000D03*
%TD*%
%TO.P,SW1,1,1_1*%
%TO.N,GND*%
X128100000Y-111000000D03*
X132900000Y-111000000D03*
%TO.P,SW1,2,2_2*%
%TO.N,Net-(U1-GPIO2_A0_D0)*%
X128100000Y-114000000D03*
X132900000Y-114000000D03*
%TD*%
%TO.P,SW2,1,1_1*%
%TO.N,GND*%
X142600000Y-111000000D03*
X147400000Y-111000000D03*
%TO.P,SW2,2,2_2*%
%TO.N,Net-(U1-GPIO3_A1_D1)*%
X142600000Y-114000000D03*
X147400000Y-114000000D03*
%TD*%
D15*
%TO.P,BUZZER1,1,+_1*%
%TO.N,Net-(BUZZER1-+)*%
X134100000Y-86000000D03*
D16*
%TO.P,BUZZER1,2,-_2*%
%TO.N,GND*%
X126500000Y-86000000D03*
%TD*%
D17*
%TO.P,U1,1,GPIO2_A0_D0_1*%
%TO.N,Net-(U1-GPIO2_A0_D0)*%
X122880000Y-125620000D03*
%TO.P,U1,2,GPIO3_A1_D1_2*%
%TO.N,Net-(U1-GPIO3_A1_D1)*%
X122880000Y-123080000D03*
%TO.P,U1,3,GPIO4_A2_D2_3*%
%TO.N,Net-(U1-GPIO4_A2_D2)*%
X122880000Y-120540000D03*
%TO.P,U1,4,GPIO5_A3_D3_4*%
%TO.N,Net-(BUZZER1-+)*%
X122880000Y-118000000D03*
%TO.P,U1,5,GPIO6_D4_SDA_5*%
%TO.N,/RES*%
X122880000Y-115460000D03*
%TO.P,U1,6,GPIO7_D5_SCL_6*%
%TO.N,/DC*%
X122880000Y-112920000D03*
%TO.P,U1,7,GPIO21_D6_TX_7*%
%TO.N,/CS1*%
X122880000Y-110380000D03*
%TO.P,U1,8,GPIO20_D7_RX_8*%
%TO.N,unconnected-(U1-GPIO20_D7_RX-Pad8)_1*%
X138120000Y-110380000D03*
%TO.P,U1,9,GPIO8_D8_SCK_9*%
%TO.N,Net-(U1-GPIO8_D8_SCK)*%
X138120000Y-112920000D03*
%TO.P,U1,10,GPIO9_D9_MISO_10*%
%TO.N,unconnected-(U1-GPIO9_D9_MISO-Pad10)_1*%
X138120000Y-115460000D03*
%TO.P,U1,11,GPIO10_D10_MOSI_11*%
%TO.N,Net-(U1-GPIO10_D10_MOSI)*%
X138120000Y-118000000D03*
%TO.P,U1,12,3V3_12*%
%TO.N,+3V3*%
X138120000Y-120540000D03*
%TO.P,U1,13,GND_13*%
%TO.N,GND*%
X138120000Y-123080000D03*
%TO.P,U1,14,VBUS_14*%
%TO.N,+5V*%
X138120000Y-125620000D03*
D18*
%TO.P,U1,15*%
%TO.N,+BATT*%
X126055000Y-118386000D03*
%TO.P,U1,16*%
%TO.N,GND*%
X126055000Y-120291000D03*
%TD*%
D19*
%TO.N,+3V3*%
X125750000Y-107250000D03*
%TO.N,Net-(BUZZER1-+)*%
X129000000Y-105500000D03*
%TD*%
%TO.N,*%
D20*
X167600000Y-93900000D02*
X160500000Y-101000000D01*
X167600000Y-80000000D02*
X167600000Y-93900000D01*
X160000000Y-92880000D02*
X160500000Y-93380000D01*
X160000000Y-80000000D02*
X160000000Y-92880000D01*
X99000000Y-86820000D02*
X100450000Y-88270000D01*
X99994365Y-82090000D02*
X99000000Y-83084365D01*
X120590000Y-82090000D02*
X99994365Y-82090000D01*
X99000000Y-83084365D02*
X99000000Y-86820000D01*
X139500000Y-101000000D02*
X120590000Y-82090000D01*
X160500000Y-101000000D02*
X139500000Y-101000000D01*
%TO.N,Net-(U1-GPIO10_D10_MOSI)*%
X109690000Y-83190000D02*
X100450000Y-83190000D01*
X137058000Y-110558000D02*
X109690000Y-83190000D01*
X137058000Y-110819895D02*
X137058000Y-110558000D01*
X137680105Y-111442000D02*
X137058000Y-110819895D01*
X138358000Y-111858000D02*
X137942000Y-111442000D01*
X138559895Y-111858000D02*
X138358000Y-111858000D01*
X139182000Y-112480105D02*
X138559895Y-111858000D01*
X143055635Y-112900000D02*
X139400000Y-112900000D01*
X143700000Y-114455635D02*
X143700000Y-113544365D01*
X137942000Y-111442000D02*
X137680105Y-111442000D01*
X140155635Y-118000000D02*
X143700000Y-114455635D01*
X139400000Y-112900000D02*
X139182000Y-112682000D01*
X139182000Y-112682000D02*
X139182000Y-112480105D01*
X138120000Y-118000000D02*
X140155635Y-118000000D01*
X143700000Y-113544365D02*
X143055635Y-112900000D01*
%TO.N,GND*%
X113600000Y-111000000D02*
X113600000Y-109040000D01*
X113600000Y-109040000D02*
X100450000Y-95890000D01*
%TO.N,Net-(U1-GPIO2_A0_D0)*%
X121818000Y-124558000D02*
X122880000Y-125620000D01*
X124500000Y-117600000D02*
X124500000Y-121500001D01*
X128100000Y-114000000D02*
X124500000Y-117600000D01*
X121818000Y-122640105D02*
X121818000Y-124558000D01*
X123982001Y-122018000D02*
X122440105Y-122018000D01*
X124500000Y-121500001D02*
X123982001Y-122018000D01*
X122440105Y-122018000D02*
X121818000Y-122640105D01*
%TO.N,+3V3*%
X111850000Y-93350000D02*
X100450000Y-93350000D01*
X99350000Y-97330000D02*
X100450000Y-98430000D01*
X125750000Y-107250000D02*
X111850000Y-93350000D01*
X100450000Y-93350000D02*
X99350000Y-94450000D01*
X99350000Y-94450000D02*
X99350000Y-97330000D01*
%TO.N,Net-(U1-GPIO3_A1_D1)*%
X125420000Y-123080000D02*
X134500000Y-114000000D01*
X134500000Y-114000000D02*
X142600000Y-114000000D01*
X122880000Y-123080000D02*
X125420000Y-123080000D01*
%TO.N,Net-(BUZZER1-+)*%
X122880000Y-118000000D02*
X126000000Y-114880000D01*
X126000000Y-114880000D02*
X126000000Y-108500000D01*
X126000000Y-108500000D02*
X129000000Y-105500000D01*
%TO.N,/DC*%
X95750000Y-98615585D02*
X95750000Y-84004315D01*
X122880000Y-112920000D02*
X122860000Y-112900000D01*
X99104315Y-80650000D02*
X100450000Y-80650000D01*
X110034415Y-112900000D02*
X95750000Y-98615585D01*
X95750000Y-84004315D02*
X99104315Y-80650000D01*
X122860000Y-112900000D02*
X110034415Y-112900000D01*
%TO.N,Net-(U1-GPIO8_D8_SCK)*%
X138120000Y-112920000D02*
X110930000Y-85730000D01*
X110930000Y-85730000D02*
X100450000Y-85730000D01*
%TO.N,/RES*%
X95230000Y-83330000D02*
X100450000Y-78110000D01*
X111710000Y-115460000D02*
X95230000Y-98980000D01*
X95230000Y-98980000D02*
X95230000Y-83330000D01*
X122880000Y-115460000D02*
X111710000Y-115460000D01*
%TO.N,/CS1*%
X94750000Y-81270000D02*
X100450000Y-75570000D01*
X124500000Y-115500000D02*
X123478000Y-116522000D01*
X94750000Y-99500000D02*
X94750000Y-81270000D01*
X123478000Y-116522000D02*
X111772000Y-116522000D01*
X124500000Y-112000000D02*
X124500000Y-115500000D01*
X122880000Y-110380000D02*
X124500000Y-112000000D01*
X111772000Y-116522000D02*
X94750000Y-99500000D01*
%TD*%
M02*
