%TF.GenerationSoftware,KiCad,Pcbnew,10.0.3*%
%TF.CreationDate,2026-06-20T23:35:50-04:00*%
%TF.ProjectId,tamagotchi (1),74616d61-676f-4746-9368-69202831292e,rev?*%
%TF.SameCoordinates,Original*%
%TF.FileFunction,Copper,L2,Bot*%
%TF.FilePolarity,Positive*%
%FSLAX46Y46*%
G04 Gerber Fmt 4.6, Leading zero omitted, Abs format (unit mm)*
G04 Created by KiCad (PCBNEW 10.0.3) date 2026-06-20 23:35:50*
%MOMM*%
%LPD*%
G01*
G04 APERTURE LIST*
G04 Aperture macros list*
%AMRoundRect*
0 Rectangle with rounded corners*
0 $1 Rounding radius*
0 $2 $3 $4 $5 $6 $7 $8 $9 X,Y pos of 4 corners*
0 Add a 4 corners polygon primitive as box body*
4,1,4,$2,$3,$4,$5,$6,$7,$8,$9,$2,$3,0*
0 Add four circle primitives for the rounded corners*
1,1,$1+$1,$2,$3*
1,1,$1+$1,$4,$5*
1,1,$1+$1,$6,$7*
1,1,$1+$1,$8,$9*
0 Add four rect primitives between the rounded corners*
20,1,$1+$1,$2,$3,$4,$5,0*
20,1,$1+$1,$4,$5,$6,$7,0*
20,1,$1+$1,$6,$7,$8,$9,0*
20,1,$1+$1,$8,$9,$2,$3,0*%
G04 Aperture macros list end*
%TA.AperFunction,ComponentPad*%
%ADD10C,1.600000*%
%TD*%
%TA.AperFunction,ComponentPad*%
%ADD11C,3.000000*%
%TD*%
%TA.AperFunction,ComponentPad*%
%ADD12R,1.600000X1.600000*%
%TD*%
%TA.AperFunction,ComponentPad*%
%ADD13R,1.700000X1.700000*%
%TD*%
%TA.AperFunction,ComponentPad*%
%ADD14C,1.700000*%
%TD*%
%TA.AperFunction,ComponentPad*%
%ADD15R,2.000000X2.000000*%
%TD*%
%TA.AperFunction,ComponentPad*%
%ADD16C,2.000000*%
%TD*%
%TA.AperFunction,ComponentPad*%
%ADD17C,1.524000*%
%TD*%
%TA.AperFunction,SMDPad,CuDef*%
%ADD18RoundRect,0.152400X1.063600X0.609600X-1.063600X0.609600X-1.063600X-0.609600X1.063600X-0.609600X0*%
%TD*%
%TA.AperFunction,SMDPad,CuDef*%
%ADD19RoundRect,0.152400X-1.063600X-0.609600X1.063600X-0.609600X1.063600X0.609600X-1.063600X0.609600X0*%
%TD*%
%TA.AperFunction,ComponentPad*%
%ADD20RoundRect,0.275000X0.975000X0.275000X-0.975000X0.275000X-0.975000X-0.275000X0.975000X-0.275000X0*%
%TD*%
%TA.AperFunction,SMDPad,CuDef*%
%ADD21C,1.700000*%
%TD*%
%TA.AperFunction,ViaPad*%
%ADD22C,0.600000*%
%TD*%
%TA.AperFunction,Conductor*%
%ADD23C,0.200000*%
%TD*%
G04 APERTURE END LIST*
D10*
%TO.P,REF\u002A\u002A,1*%
%TO.N,N/C*%
X160500000Y-101000000D03*
%TO.P,REF\u002A\u002A,2*%
X160500000Y-93380000D03*
%TD*%
%TO.P,REF\u002A\u002A,1*%
%TO.N,N/C*%
X160000000Y-80000000D03*
%TO.P,REF\u002A\u002A,2*%
X167600000Y-80000000D03*
%TD*%
D11*
%TO.P,LCD1,*%
%TO.N,*%
X152680000Y-72000000D03*
X101680000Y-72000000D03*
X152680000Y-102000000D03*
X101680000Y-102000000D03*
D12*
%TO.P,LCD1,1,LEDK_1*%
%TO.N,unconnected-(U2-LEDK-Pad1)*%
X153910000Y-75570000D03*
D10*
%TO.P,LCD1,2,LEDA_2*%
%TO.N,unconnected-(U2-LEDA-Pad2)*%
X153910000Y-78110000D03*
%TO.P,LCD1,3,VDD3.3V_3*%
%TO.N,unconnected-(U2-VDD3.3V-Pad3)*%
X153910000Y-80650000D03*
%TO.P,LCD1,4,TE_4*%
%TO.N,unconnected-(U2-TE-Pad4)*%
X153910000Y-83190000D03*
%TO.P,LCD1,5,CS_5*%
%TO.N,unconnected-(U2-CS-Pad5)*%
X153910000Y-85730000D03*
%TO.P,LCD1,6,RESET_6*%
%TO.N,unconnected-(U2-RESET-Pad6)*%
X153910000Y-88270000D03*
%TO.P,LCD1,7,D/CX_7*%
%TO.N,unconnected-(U2-D{slash}CX-Pad7)*%
X153910000Y-90810000D03*
%TO.P,LCD1,8,SCLK_8*%
%TO.N,unconnected-(U2-SCLK-Pad8)*%
X153910000Y-93350000D03*
%TO.P,LCD1,9,SDA_9*%
%TO.N,unconnected-(U2-SDA-Pad9)*%
X153910000Y-95890000D03*
%TO.P,LCD1,10,GND_10*%
%TO.N,unconnected-(U2-GND-Pad10)*%
X153910000Y-98430000D03*
%TO.P,LCD1,11*%
%TO.N,+3V3*%
X100450000Y-98430000D03*
%TO.P,LCD1,12*%
%TO.N,GND*%
X100450000Y-95890000D03*
%TO.P,LCD1,13*%
%TO.N,+3V3*%
X100450000Y-93350000D03*
%TO.P,LCD1,14*%
%TO.N,N/C*%
X100450000Y-90810000D03*
%TO.P,LCD1,15*%
X100450000Y-88270000D03*
%TO.P,LCD1,16*%
%TO.N,Net-(U1-GPIO8_D8_SCK)*%
X100450000Y-85730000D03*
%TO.P,LCD1,17*%
%TO.N,Net-(U1-GPIO10_D10_MOSI)*%
X100450000Y-83190000D03*
%TO.P,LCD1,18*%
%TO.N,/DC*%
X100450000Y-80650000D03*
%TO.P,LCD1,19*%
%TO.N,/RES*%
X100450000Y-78110000D03*
%TO.P,LCD1,20*%
%TO.N,/CS1*%
X100450000Y-75570000D03*
%TD*%
D13*
%TO.P,BT1,1,+_1*%
%TO.N,+BATT*%
X129225000Y-54500000D03*
D14*
%TO.P,BT1,2,-_2*%
%TO.N,GND*%
X131765000Y-54500000D03*
%TD*%
D10*
%TO.P,SW3,1,1_1*%
%TO.N,GND*%
X113600000Y-111000000D03*
X118400000Y-111000000D03*
%TO.P,SW3,2,2_2*%
%TO.N,Net-(U1-GPIO4_A2_D2)*%
X113600000Y-114000000D03*
X118400000Y-114000000D03*
%TD*%
%TO.P,SW1,1,1_1*%
%TO.N,GND*%
X128100000Y-111000000D03*
X132900000Y-111000000D03*
%TO.P,SW1,2,2_2*%
%TO.N,Net-(U1-GPIO2_A0_D0)*%
X128100000Y-114000000D03*
X132900000Y-114000000D03*
%TD*%
%TO.P,SW2,1,1_1*%
%TO.N,GND*%
X142600000Y-111000000D03*
X147400000Y-111000000D03*
%TO.P,SW2,2,2_2*%
%TO.N,Net-(U1-GPIO3_A1_D1)*%
X142600000Y-114000000D03*
X147400000Y-114000000D03*
%TD*%
D15*
%TO.P,BUZZER1,1,+_1*%
%TO.N,Net-(BUZZER1-+)*%
X134100000Y-86000000D03*
D16*
%TO.P,BUZZER1,2,-_2*%
%TO.N,GND*%
X126500000Y-86000000D03*
%TD*%
D17*
%TO.P,U1,1,GPIO2_A0_D0_1*%
%TO.N,Net-(U1-GPIO2_A0_D0)*%
X122880000Y-125620000D03*
D18*
X122045000Y-125620000D03*
D17*
%TO.P,U1,2,GPIO3_A1_D1_2*%
%TO.N,Net-(U1-GPIO3_A1_D1)*%
X122880000Y-123080000D03*
D18*
X122045000Y-123080000D03*
D17*
%TO.P,U1,3,GPIO4_A2_D2_3*%
%TO.N,Net-(U1-GPIO4_A2_D2)*%
X122880000Y-120540000D03*
D18*
X122045000Y-120540000D03*
D17*
%TO.P,U1,4,GPIO5_A3_D3_4*%
%TO.N,Net-(BUZZER1-+)*%
X122880000Y-118000000D03*
D18*
X122045000Y-118000000D03*
D17*
%TO.P,U1,5,GPIO6_D4_SDA_5*%
%TO.N,/RES*%
X122880000Y-115460000D03*
D18*
X122045000Y-115460000D03*
D17*
%TO.P,U1,6,GPIO7_D5_SCL_6*%
%TO.N,/DC*%
X122880000Y-112920000D03*
D18*
X122045000Y-112920000D03*
D17*
%TO.P,U1,7,GPIO21_D6_TX_7*%
%TO.N,/CS1*%
X122880000Y-110380000D03*
D18*
X122045000Y-110380000D03*
D19*
%TO.P,U1,8,GPIO20_D7_RX_8*%
%TO.N,unconnected-(U1-GPIO20_D7_RX-Pad8)*%
X138955000Y-110380000D03*
D17*
%TO.N,unconnected-(U1-GPIO20_D7_RX-Pad8)_1*%
X138120000Y-110380000D03*
D19*
%TO.P,U1,9,GPIO8_D8_SCK_9*%
%TO.N,Net-(U1-GPIO8_D8_SCK)*%
X138955000Y-112920000D03*
D17*
X138120000Y-112920000D03*
D19*
%TO.P,U1,10,GPIO9_D9_MISO_10*%
%TO.N,unconnected-(U1-GPIO9_D9_MISO-Pad10)*%
X138955000Y-115460000D03*
D17*
%TO.N,unconnected-(U1-GPIO9_D9_MISO-Pad10)_1*%
X138120000Y-115460000D03*
D19*
%TO.P,U1,11,GPIO10_D10_MOSI_11*%
%TO.N,Net-(U1-GPIO10_D10_MOSI)*%
X138955000Y-118000000D03*
D17*
X138120000Y-118000000D03*
D19*
%TO.P,U1,12,3V3_12*%
%TO.N,+3V3*%
X138955000Y-120540000D03*
D17*
X138120000Y-120540000D03*
D19*
%TO.P,U1,13,GND_13*%
%TO.N,GND*%
X138955000Y-123080000D03*
D17*
X138120000Y-123080000D03*
D19*
%TO.P,U1,14,VBUS_14*%
%TO.N,+5V*%
X138955000Y-125620000D03*
D17*
X138120000Y-125620000D03*
D20*
%TO.P,U1,15*%
%TO.N,+BATT*%
X126055000Y-118386000D03*
%TO.P,U1,16*%
%TO.N,GND*%
X126055000Y-120291000D03*
D21*
%TO.P,U1,17*%
%TO.N,N/C*%
X129230000Y-126636000D03*
%TO.P,U1,18*%
X131770000Y-126636000D03*
%TO.P,U1,19*%
X129230000Y-124096000D03*
%TO.P,U1,20*%
X131770000Y-124096000D03*
%TO.P,U1,21*%
X129230000Y-121556000D03*
%TO.P,U1,22*%
X131770000Y-121556000D03*
%TD*%
D22*
%TO.N,+3V3*%
X125750000Y-107250000D03*
%TO.N,Net-(BUZZER1-+)*%
X129000000Y-105500000D03*
%TD*%
%TO.N,+BATT*%
D23*
X129225000Y-54500000D02*
X125000000Y-58725000D01*
X125000000Y-58725000D02*
X125000000Y-117331000D01*
X125000000Y-117331000D02*
X126055000Y-118386000D01*
%TO.N,GND*%
X138955000Y-123080000D02*
X138120000Y-123080000D01*
X140918000Y-109318000D02*
X134582000Y-109318000D01*
X120789786Y-116522000D02*
X119500000Y-115232214D01*
X135331000Y-120291000D02*
X138120000Y-123080000D01*
X126055000Y-120291000D02*
X135331000Y-120291000D01*
X125791000Y-120291000D02*
X123942000Y-118442000D01*
X140500000Y-121535000D02*
X138955000Y-123080000D01*
X126055000Y-120291000D02*
X125791000Y-120291000D01*
X128100000Y-87600000D02*
X128100000Y-111000000D01*
X122903895Y-116522000D02*
X120789786Y-116522000D01*
X123942000Y-118442000D02*
X123942000Y-117560105D01*
X142600000Y-111000000D02*
X147400000Y-111000000D01*
X119500000Y-115232214D02*
X119500000Y-112100000D01*
X140500000Y-113100000D02*
X142600000Y-111000000D01*
X123942000Y-117560105D02*
X122903895Y-116522000D01*
X126500000Y-59765000D02*
X126500000Y-86000000D01*
X118400000Y-111000000D02*
X113600000Y-111000000D01*
X132900000Y-111000000D02*
X128100000Y-111000000D01*
X131765000Y-54500000D02*
X126500000Y-59765000D01*
X140500000Y-121535000D02*
X140500000Y-113100000D01*
X119500000Y-112100000D02*
X118400000Y-111000000D01*
X142600000Y-111000000D02*
X140918000Y-109318000D01*
X126500000Y-86000000D02*
X128100000Y-87600000D01*
X134582000Y-109318000D02*
X132900000Y-111000000D01*
%TO.N,Net-(U1-GPIO4_A2_D2)*%
X113600000Y-114000000D02*
X118400000Y-114000000D01*
X118400000Y-114000000D02*
X118400000Y-117137630D01*
X118400000Y-117137630D02*
X121802370Y-120540000D01*
X121802370Y-120540000D02*
X122880000Y-120540000D01*
%TO.N,Net-(U1-GPIO2_A0_D0)*%
X132900000Y-114000000D02*
X128100000Y-114000000D01*
%TO.N,+3V3*%
X125750000Y-107250000D02*
X126500000Y-108000000D01*
X126500000Y-115000000D02*
X130000000Y-118500000D01*
X136080000Y-118500000D02*
X138120000Y-120540000D01*
X130000000Y-118500000D02*
X136080000Y-118500000D01*
X126500000Y-108000000D02*
X126500000Y-115000000D01*
%TO.N,Net-(U1-GPIO3_A1_D1)*%
X147400000Y-114000000D02*
X142600000Y-114000000D01*
%TO.N,Net-(BUZZER1-+)*%
X129000000Y-105500000D02*
X134100000Y-100400000D01*
X134100000Y-100400000D02*
X134100000Y-86000000D01*
%TD*%
M02*
