M48
; DRILL file KiCad 10.0.3 date 2026-06-20T23:35:52
; FORMAT={-:-/ absolute / metric / decimal}
; #@! TF.CreationDate,2026-06-20T23:35:52-04:00
; #@! TF.GenerationSoftware,Kicad,Pcbnew,10.0.3
; #@! TF.FileFunction,Plated,1,2,PTH
FMAT,2
METRIC
; #@! TA.AperFunction,Plated,PTH,ViaDrill
T1C0.300
; #@! TA.AperFunction,Plated,PTH,ComponentDrill
T2C0.800
; #@! TA.AperFunction,Plated,PTH,ComponentDrill
T3C0.889
; #@! TA.AperFunction,Plated,PTH,ComponentDrill
T4C1.000
; #@! TA.AperFunction,Plated,PTH,ComponentDrill
T5C1.000
; #@! TA.AperFunction,Plated,PTH,ComponentDrill
T6C2.000
%
G90
G05
T1
X125.75Y-107.25
X129.0Y-105.5
T2
X160.0Y-80.0
X160.5Y-93.38
X160.5Y-101.0
X167.6Y-80.0
T3
X122.88Y-110.38
X122.88Y-112.92
X122.88Y-115.46
X122.88Y-118.0
X122.88Y-120.54
X122.88Y-123.08
X122.88Y-125.62
X126.055Y-118.386
X126.055Y-120.291
X138.12Y-110.38
X138.12Y-112.92
X138.12Y-115.46
X138.12Y-118.0
X138.12Y-120.54
X138.12Y-123.08
X138.12Y-125.62
T4
X100.45Y-75.57
X100.45Y-78.11
X100.45Y-80.65
X100.45Y-83.19
X100.45Y-85.73
X100.45Y-88.27
X100.45Y-90.81
X100.45Y-93.35
X100.45Y-95.89
X100.45Y-98.43
X113.6Y-111.0
X113.6Y-114.0
X118.4Y-111.0
X118.4Y-114.0
X128.1Y-111.0
X128.1Y-114.0
X132.9Y-111.0
X132.9Y-114.0
X142.6Y-111.0
X142.6Y-114.0
X147.4Y-111.0
X147.4Y-114.0
X153.91Y-75.57
X153.91Y-78.11
X153.91Y-80.65
X153.91Y-83.19
X153.91Y-85.73
X153.91Y-88.27
X153.91Y-90.81
X153.91Y-93.35
X153.91Y-95.89
X153.91Y-98.43
T5
X126.5Y-86.0
X129.225Y-54.5
X131.765Y-54.5
X134.1Y-86.0
T6
X101.68Y-72.0
X101.68Y-102.0
X152.68Y-72.0
X152.68Y-102.0
M30
