%TF.GenerationSoftware,KiCad,Pcbnew,10.0.3*%
%TF.CreationDate,2026-06-20T23:35:50-04:00*%
%TF.ProjectId,tamagotchi (1),74616d61-676f-4746-9368-69202831292e,rev?*%
%TF.SameCoordinates,Original*%
%TF.FileFunction,Soldermask,Bot*%
%TF.FilePolarity,Negative*%
%FSLAX46Y46*%
G04 Gerber Fmt 4.6, Leading zero omitted, Abs format (unit mm)*
G04 Created by KiCad (PCBNEW 10.0.3) date 2026-06-20 23:35:50*
%MOMM*%
%LPD*%
G01*
G04 APERTURE LIST*
G04 Aperture macros list*
%AMRoundRect*
0 Rectangle with rounded corners*
0 $1 Rounding radius*
0 $2 $3 $4 $5 $6 $7 $8 $9 X,Y pos of 4 corners*
0 Add a 4 corners polygon primitive as box body*
4,1,4,$2,$3,$4,$5,$6,$7,$8,$9,$2,$3,0*
0 Add four circle primitives for the rounded corners*
1,1,$1+$1,$2,$3*
1,1,$1+$1,$4,$5*
1,1,$1+$1,$6,$7*
1,1,$1+$1,$8,$9*
0 Add four rect primitives between the rounded corners*
20,1,$1+$1,$2,$3,$4,$5,0*
20,1,$1+$1,$4,$5,$6,$7,0*
20,1,$1+$1,$6,$7,$8,$9,0*
20,1,$1+$1,$8,$9,$2,$3,0*%
G04 Aperture macros list end*
%ADD10C,1.600000*%
%ADD11C,3.000000*%
%ADD12R,1.600000X1.600000*%
%ADD13R,1.700000X1.700000*%
%ADD14C,1.700000*%
%ADD15C,3.200000*%
%ADD16R,2.000000X2.000000*%
%ADD17C,2.000000*%
%ADD18C,1.524000*%
%ADD19RoundRect,0.152400X1.063600X0.609600X-1.063600X0.609600X-1.063600X-0.609600X1.063600X-0.609600X0*%
%ADD20RoundRect,0.152400X-1.063600X-0.609600X1.063600X-0.609600X1.063600X0.609600X-1.063600X0.609600X0*%
%ADD21RoundRect,0.275000X0.975000X0.275000X-0.975000X0.275000X-0.975000X-0.275000X0.975000X-0.275000X0*%
G04 APERTURE END LIST*
D10*
%TO.C,REF\u002A\u002A*%
X160500000Y-101000000D03*
X160500000Y-93380000D03*
%TD*%
%TO.C,REF\u002A\u002A*%
X160000000Y-80000000D03*
X167600000Y-80000000D03*
%TD*%
D11*
%TO.C,LCD1*%
X152680000Y-72000000D03*
X101680000Y-72000000D03*
X152680000Y-102000000D03*
X101680000Y-102000000D03*
D12*
X153910000Y-75570000D03*
D10*
X153910000Y-78110000D03*
X153910000Y-80650000D03*
X153910000Y-83190000D03*
X153910000Y-85730000D03*
X153910000Y-88270000D03*
X153910000Y-90810000D03*
X153910000Y-93350000D03*
X153910000Y-95890000D03*
X153910000Y-98430000D03*
X100450000Y-98430000D03*
X100450000Y-95890000D03*
X100450000Y-93350000D03*
X100450000Y-90810000D03*
X100450000Y-88270000D03*
X100450000Y-85730000D03*
X100450000Y-83190000D03*
X100450000Y-80650000D03*
X100450000Y-78110000D03*
X100450000Y-75570000D03*
%TD*%
D13*
%TO.C,BT1*%
X129225000Y-54500000D03*
D14*
X131765000Y-54500000D03*
%TD*%
D10*
%TO.C,SW3*%
X113600000Y-111000000D03*
X118400000Y-111000000D03*
X113600000Y-114000000D03*
X118400000Y-114000000D03*
%TD*%
D15*
%TO.C,REF\u002A\u002A*%
X148500000Y-125000000D03*
%TD*%
%TO.C,REF\u002A\u002A*%
X112500000Y-125000000D03*
%TD*%
D10*
%TO.C,SW1*%
X128100000Y-111000000D03*
X132900000Y-111000000D03*
X128100000Y-114000000D03*
X132900000Y-114000000D03*
%TD*%
D15*
%TO.C,REF\u002A\u002A*%
X130500000Y-62250000D03*
%TD*%
D10*
%TO.C,SW2*%
X142600000Y-111000000D03*
X147400000Y-111000000D03*
X142600000Y-114000000D03*
X147400000Y-114000000D03*
%TD*%
D16*
%TO.C,BUZZER1*%
X134100000Y-86000000D03*
D17*
X126500000Y-86000000D03*
%TD*%
D18*
%TO.C,U1*%
X122880000Y-125620000D03*
D19*
X122045000Y-125620000D03*
D18*
X122880000Y-123080000D03*
D19*
X122045000Y-123080000D03*
D18*
X122880000Y-120540000D03*
D19*
X122045000Y-120540000D03*
D18*
X122880000Y-118000000D03*
D19*
X122045000Y-118000000D03*
D18*
X122880000Y-115460000D03*
D19*
X122045000Y-115460000D03*
D18*
X122880000Y-112920000D03*
D19*
X122045000Y-112920000D03*
D18*
X122880000Y-110380000D03*
D19*
X122045000Y-110380000D03*
D20*
X138955000Y-110380000D03*
D18*
X138120000Y-110380000D03*
D20*
X138955000Y-112920000D03*
D18*
X138120000Y-112920000D03*
D20*
X138955000Y-115460000D03*
D18*
X138120000Y-115460000D03*
D20*
X138955000Y-118000000D03*
D18*
X138120000Y-118000000D03*
D20*
X138955000Y-120540000D03*
D18*
X138120000Y-120540000D03*
D20*
X138955000Y-123080000D03*
D18*
X138120000Y-123080000D03*
D20*
X138955000Y-125620000D03*
D18*
X138120000Y-125620000D03*
D21*
X126055000Y-118386000D03*
X126055000Y-120291000D03*
D14*
X129230000Y-126636000D03*
X131770000Y-126636000D03*
X129230000Y-124096000D03*
X131770000Y-124096000D03*
X129230000Y-121556000D03*
X131770000Y-121556000D03*
%TD*%
M02*
